<?xml version="1.0" encoding="UTF-8" standalone="no"?>
<!DOCTYPE svg PUBLIC "-//W3C//DTD SVG 1.1//EN"
 "http://www.w3.org/Graphics/SVG/1.1/DTD/svg11.dtd">
<!-- Generated by graphviz version 2.44.1 (20200629.0846)
 -->
<!-- Title: dependencies Pages: 1 -->
<svg width="3062pt" height="284pt"
 viewBox="0.00 0.00 3062.00 284.00" xmlns="http://www.w3.org/2000/svg" xmlns:xlink="http://www.w3.org/1999/xlink">
<g id="graph0" class="graph" transform="scale(1 1) rotate(0) translate(4 280)">
<title>dependencies</title>
<polygon fill="white" stroke="transparent" points="-4,4 -4,-280 3058,-280 3058,4 -4,4"/>
<text text-anchor="start" x="1506.01" y="-42.4" font-family="sans-serif" font-weight="bold" font-size="14.00">Legend</text>
<polygon fill="#ffffb3" stroke="transparent" points="1293,-10 1293,-30 1313,-30 1313,-10 1293,-10"/>
<text text-anchor="start" x="1316.63" y="-15.4" font-family="sans-serif" font-size="14.00"> &#160;Declarations</text>
<polygon fill="#8dd3c7" stroke="transparent" points="1406,-10 1406,-30 1426,-30 1426,-10 1406,-10"/>
<text text-anchor="start" x="1429.73" y="-15.4" font-family="sans-serif" font-size="14.00"> &#160;Module</text>
<polygon fill="#80b1d3" stroke="transparent" points="1492,-10 1492,-30 1512,-30 1512,-10 1492,-10"/>
<text text-anchor="start" x="1515.78" y="-15.4" font-family="sans-serif" font-size="14.00"> &#160;Bootstrap</text>
<polygon fill="#fdb462" stroke="transparent" points="1589,-10 1589,-30 1609,-30 1609,-10 1589,-10"/>
<text text-anchor="start" x="1612.67" y="-15.4" font-family="sans-serif" font-size="14.00"> &#160;Providers</text>
<polygon fill="#fb8072" stroke="transparent" points="1685,-10 1685,-30 1705,-30 1705,-10 1685,-10"/>
<text text-anchor="start" x="1708.73" y="-15.4" font-family="sans-serif" font-size="14.00"> &#160;Exports</text>
<g id="clust1" class="cluster">
<title>cluster_AppModule</title>
<polygon fill="none" stroke="black" stroke-dasharray="1,5" points="8,-70 8,-268 3046,-268 3046,-70 8,-70"/>
</g>
<g id="clust18" class="cluster">
<title>cluster_AppModule_imports</title>
<polygon fill="none" stroke="black" points="2777,-78 2777,-130 3038,-130 3038,-78 2777,-78"/>
</g>
<g id="clust20" class="cluster">
<title>cluster_AppModule_bootstrap</title>
<polygon fill="none" stroke="black" points="1498,-208 1498,-260 1622,-260 1622,-208 1498,-208"/>
</g>
<g id="clust21" class="cluster">
<title>cluster_AppModule_providers</title>
<polygon fill="none" stroke="black" points="2281,-78 2281,-130 2769,-130 2769,-78 2281,-78"/>
</g>
<g id="clust2" class="cluster">
<title>cluster_AppModule_declarations</title>
<polygon fill="none" stroke="black" points="16,-78 16,-130 2273,-130 2273,-78 16,-78"/>
</g>
<!-- AppComponent -->
<g id="node1" class="node">
<title>AppComponent</title>
<polygon fill="#ffffb3" stroke="black" points="2264.94,-122 2159.06,-122 2159.06,-86 2264.94,-86 2264.94,-122"/>
<text text-anchor="middle" x="2212" y="-99.8" font-family="Times,serif" font-size="14.00">AppComponent</text>
</g>
<!-- AppModule -->
<g id="node16" class="node">
<title>AppModule</title>
<polygon fill="#8dd3c7" stroke="black" points="1601.66,-187 1598.66,-191 1577.66,-191 1574.66,-187 1518.34,-187 1518.34,-151 1601.66,-151 1601.66,-187"/>
<text text-anchor="middle" x="1560" y="-164.8" font-family="Times,serif" font-size="14.00">AppModule</text>
</g>
<!-- AppComponent&#45;&gt;AppModule -->
<g id="edge1" class="edge">
<title>AppComponent&#45;&gt;AppModule</title>
<path fill="none" stroke="black" d="M2212,-122.27C2212,-140.56 2212,-166 2212,-166 2212,-166 1611.78,-166 1611.78,-166"/>
<polygon fill="black" stroke="black" points="1611.78,-162.5 1601.78,-166 1611.78,-169.5 1611.78,-162.5"/>
</g>
<!-- CompetingComponent -->
<g id="node2" class="node">
<title>CompetingComponent</title>
<polygon fill="#ffffb3" stroke="black" points="2141.56,-122 1998.44,-122 1998.44,-86 2141.56,-86 2141.56,-122"/>
<text text-anchor="middle" x="2070" y="-99.8" font-family="Times,serif" font-size="14.00">CompetingComponent</text>
</g>
<!-- CompetingComponent&#45;&gt;AppModule -->
<g id="edge2" class="edge">
<title>CompetingComponent&#45;&gt;AppModule</title>
<path fill="none" stroke="black" d="M2070,-122.03C2070,-139.06 2070,-162 2070,-162 2070,-162 1611.74,-162 1611.74,-162"/>
<polygon fill="black" stroke="black" points="1611.74,-158.5 1601.74,-162 1611.74,-165.5 1611.74,-158.5"/>
</g>
<!-- ConfirmDialog -->
<g id="node3" class="node">
<title>ConfirmDialog</title>
<polygon fill="#ffffb3" stroke="black" points="1979.54,-122 1878.46,-122 1878.46,-86 1979.54,-86 1979.54,-122"/>
<text text-anchor="middle" x="1929" y="-99.8" font-family="Times,serif" font-size="14.00">ConfirmDialog</text>
</g>
<!-- ConfirmDialog&#45;&gt;AppModule -->
<g id="edge3" class="edge">
<title>ConfirmDialog&#45;&gt;AppModule</title>
<path fill="none" stroke="black" d="M1929,-122.01C1929,-138.05 1929,-159 1929,-159 1929,-159 1611.97,-159 1611.97,-159"/>
<polygon fill="black" stroke="black" points="1611.97,-155.5 1601.97,-159 1611.97,-162.5 1611.97,-155.5"/>
</g>
<!-- ContestlistComponent -->
<g id="node4" class="node">
<title>ContestlistComponent</title>
<polygon fill="#ffffb3" stroke="black" points="1860.73,-122 1719.27,-122 1719.27,-86 1860.73,-86 1860.73,-122"/>
<text text-anchor="middle" x="1790" y="-99.8" font-family="Times,serif" font-size="14.00">ContestlistComponent</text>
</g>
<!-- ContestlistComponent&#45;&gt;AppModule -->
<g id="edge4" class="edge">
<title>ContestlistComponent&#45;&gt;AppModule</title>
<path fill="none" stroke="black" d="M1790,-122.12C1790,-136.78 1790,-155 1790,-155 1790,-155 1611.92,-155 1611.92,-155"/>
<polygon fill="black" stroke="black" points="1611.92,-151.5 1601.92,-155 1611.92,-158.5 1611.92,-151.5"/>
</g>
<!-- ContestsComponent -->
<g id="node5" class="node">
<title>ContestsComponent</title>
<polygon fill="#ffffb3" stroke="black" points="1701.55,-122 1572.45,-122 1572.45,-86 1701.55,-86 1701.55,-122"/>
<text text-anchor="middle" x="1637" y="-99.8" font-family="Times,serif" font-size="14.00">ContestsComponent</text>
</g>
<!-- ContestsComponent&#45;&gt;AppModule -->
<g id="edge5" class="edge">
<title>ContestsComponent&#45;&gt;AppModule</title>
<path fill="none" stroke="black" d="M1587.03,-122.11C1587.03,-122.11 1587.03,-140.99 1587.03,-140.99"/>
<polygon fill="black" stroke="black" points="1583.53,-140.99 1587.03,-150.99 1590.53,-140.99 1583.53,-140.99"/>
</g>
<!-- DashboardComponent -->
<g id="node6" class="node">
<title>DashboardComponent</title>
<polygon fill="#ffffb3" stroke="black" points="1553.97,-122 1412.03,-122 1412.03,-86 1553.97,-86 1553.97,-122"/>
<text text-anchor="middle" x="1483" y="-99.8" font-family="Times,serif" font-size="14.00">DashboardComponent</text>
</g>
<!-- DashboardComponent&#45;&gt;AppModule -->
<g id="edge6" class="edge">
<title>DashboardComponent&#45;&gt;AppModule</title>
<path fill="none" stroke="black" d="M1536.08,-122.11C1536.08,-122.11 1536.08,-140.99 1536.08,-140.99"/>
<polygon fill="black" stroke="black" points="1532.58,-140.99 1536.08,-150.99 1539.58,-140.99 1532.58,-140.99"/>
</g>
<!-- FilelistComponent -->
<g id="node7" class="node">
<title>FilelistComponent</title>
<polygon fill="#ffffb3" stroke="black" points="1394.23,-122 1273.77,-122 1273.77,-86 1394.23,-86 1394.23,-122"/>
<text text-anchor="middle" x="1334" y="-99.8" font-family="Times,serif" font-size="14.00">FilelistComponent</text>
</g>
<!-- FilelistComponent&#45;&gt;AppModule -->
<g id="edge7" class="edge">
<title>FilelistComponent&#45;&gt;AppModule</title>
<path fill="none" stroke="black" d="M1334,-122.12C1334,-136.78 1334,-155 1334,-155 1334,-155 1508.28,-155 1508.28,-155"/>
<polygon fill="black" stroke="black" points="1508.28,-158.5 1518.28,-155 1508.28,-151.5 1508.28,-158.5"/>
</g>
<!-- HomeComponent -->
<g id="node8" class="node">
<title>HomeComponent</title>
<polygon fill="#ffffb3" stroke="black" points="1255.55,-122 1140.45,-122 1140.45,-86 1255.55,-86 1255.55,-122"/>
<text text-anchor="middle" x="1198" y="-99.8" font-family="Times,serif" font-size="14.00">HomeComponent</text>
</g>
<!-- HomeComponent&#45;&gt;AppModule -->
<g id="edge8" class="edge">
<title>HomeComponent&#45;&gt;AppModule</title>
<path fill="none" stroke="black" d="M1198,-122.01C1198,-138.05 1198,-159 1198,-159 1198,-159 1508.12,-159 1508.12,-159"/>
<polygon fill="black" stroke="black" points="1508.12,-162.5 1518.12,-159 1508.12,-155.5 1508.12,-162.5"/>
</g>
<!-- LeaderboardComponent -->
<g id="node9" class="node">
<title>LeaderboardComponent</title>
<polygon fill="#ffffb3" stroke="black" points="1122.06,-122 969.94,-122 969.94,-86 1122.06,-86 1122.06,-122"/>
<text text-anchor="middle" x="1046" y="-99.8" font-family="Times,serif" font-size="14.00">LeaderboardComponent</text>
</g>
<!-- LeaderboardComponent&#45;&gt;AppModule -->
<g id="edge9" class="edge">
<title>LeaderboardComponent&#45;&gt;AppModule</title>
<path fill="none" stroke="black" d="M1046,-122.03C1046,-139.06 1046,-162 1046,-162 1046,-162 1507.94,-162 1507.94,-162"/>
<polygon fill="black" stroke="black" points="1507.94,-165.5 1517.94,-162 1507.94,-158.5 1507.94,-165.5"/>
</g>
<!-- MainComponent -->
<g id="node10" class="node">
<title>MainComponent</title>
<polygon fill="#ffffb3" stroke="black" points="952.38,-122 841.62,-122 841.62,-86 952.38,-86 952.38,-122"/>
<text text-anchor="middle" x="897" y="-99.8" font-family="Times,serif" font-size="14.00">MainComponent</text>
</g>
<!-- MainComponent&#45;&gt;AppModule -->
<g id="edge10" class="edge">
<title>MainComponent&#45;&gt;AppModule</title>
<path fill="none" stroke="black" d="M897,-122.27C897,-140.56 897,-166 897,-166 897,-166 1508.28,-166 1508.28,-166"/>
<polygon fill="black" stroke="black" points="1508.28,-169.5 1518.28,-166 1508.28,-162.5 1508.28,-169.5"/>
</g>
<!-- NewfiledialogComponent -->
<g id="node11" class="node">
<title>NewfiledialogComponent</title>
<polygon fill="#ffffb3" stroke="black" points="823.91,-122 662.09,-122 662.09,-86 823.91,-86 823.91,-122"/>
<text text-anchor="middle" x="743" y="-99.8" font-family="Times,serif" font-size="14.00">NewfiledialogComponent</text>
</g>
<!-- NewfiledialogComponent&#45;&gt;AppModule -->
<g id="edge11" class="edge">
<title>NewfiledialogComponent&#45;&gt;AppModule</title>
<path fill="none" stroke="black" d="M743,-122.11C743,-141.34 743,-169 743,-169 743,-169 1508.08,-169 1508.08,-169"/>
<polygon fill="black" stroke="black" points="1508.08,-172.5 1518.08,-169 1508.08,-165.5 1508.08,-172.5"/>
</g>
<!-- ProblemComponent -->
<g id="node12" class="node">
<title>ProblemComponent</title>
<polygon fill="#ffffb3" stroke="black" points="644.27,-122 515.73,-122 515.73,-86 644.27,-86 644.27,-122"/>
<text text-anchor="middle" x="580" y="-99.8" font-family="Times,serif" font-size="14.00">ProblemComponent</text>
</g>
<!-- ProblemComponent&#45;&gt;AppModule -->
<g id="edge12" class="edge">
<title>ProblemComponent&#45;&gt;AppModule</title>
<path fill="none" stroke="black" d="M580,-122.13C580,-142.57 580,-173 580,-173 580,-173 1508.2,-173 1508.2,-173"/>
<polygon fill="black" stroke="black" points="1508.2,-176.5 1518.2,-173 1508.2,-169.5 1508.2,-176.5"/>
</g>
<!-- ProblemlistComponent -->
<g id="node13" class="node">
<title>ProblemlistComponent</title>
<polygon fill="#ffffb3" stroke="black" points="497.89,-122 352.11,-122 352.11,-86 497.89,-86 497.89,-122"/>
<text text-anchor="middle" x="425" y="-99.8" font-family="Times,serif" font-size="14.00">ProblemlistComponent</text>
</g>
<!-- ProblemlistComponent&#45;&gt;AppModule -->
<g id="edge13" class="edge">
<title>ProblemlistComponent&#45;&gt;AppModule</title>
<path fill="none" stroke="black" d="M425,-122.04C425,-143.66 425,-177 425,-177 425,-177 1508.26,-177 1508.26,-177"/>
<polygon fill="black" stroke="black" points="1508.26,-180.5 1518.26,-177 1508.26,-173.5 1508.26,-180.5"/>
</g>
<!-- RenamefileDialog -->
<g id="node14" class="node">
<title>RenamefileDialog</title>
<polygon fill="#ffffb3" stroke="black" points="334.13,-122 215.87,-122 215.87,-86 334.13,-86 334.13,-122"/>
<text text-anchor="middle" x="275" y="-99.8" font-family="Times,serif" font-size="14.00">RenamefileDialog</text>
</g>
<!-- RenamefileDialog&#45;&gt;AppModule -->
<g id="edge14" class="edge">
<title>RenamefileDialog&#45;&gt;AppModule</title>
<path fill="none" stroke="black" d="M275,-122.01C275,-144.49 275,-180 275,-180 275,-180 1508.34,-180 1508.34,-180"/>
<polygon fill="black" stroke="black" points="1508.34,-183.5 1518.34,-180 1508.34,-176.5 1508.34,-183.5"/>
</g>
<!-- SubmissiontableComponent -->
<g id="node15" class="node">
<title>SubmissiontableComponent</title>
<polygon fill="#ffffb3" stroke="black" points="197.89,-122 24.11,-122 24.11,-86 197.89,-86 197.89,-122"/>
<text text-anchor="middle" x="111" y="-99.8" font-family="Times,serif" font-size="14.00">SubmissiontableComponent</text>
</g>
<!-- SubmissiontableComponent&#45;&gt;AppModule -->
<g id="edge15" class="edge">
<title>SubmissiontableComponent&#45;&gt;AppModule</title>
<path fill="none" stroke="black" d="M111,-122.15C111,-145.76 111,-184 111,-184 111,-184 1508.2,-184 1508.2,-184"/>
<polygon fill="black" stroke="black" points="1508.2,-187.5 1518.2,-184 1508.2,-180.5 1508.2,-187.5"/>
</g>
<!-- AppComponent  -->
<g id="node19" class="node">
<title>AppComponent </title>
<polygon fill="#80b1d3" stroke="black" points="1614.44,-252 1505.56,-252 1505.56,-216 1614.44,-216 1614.44,-252"/>
<text text-anchor="middle" x="1560" y="-229.8" font-family="Times,serif" font-size="14.00">AppComponent </text>
</g>
<!-- AppModule&#45;&gt;AppComponent  -->
<g id="edge18" class="edge">
<title>AppModule&#45;&gt;AppComponent </title>
<path fill="none" stroke="black" stroke-dasharray="1,5" d="M1560,-187.11C1560,-187.11 1560,-205.99 1560,-205.99"/>
<polygon fill="black" stroke="black" points="1556.5,-205.99 1560,-215.99 1563.5,-205.99 1556.5,-205.99"/>
</g>
<!-- AppRoutingModule -->
<g id="node17" class="node">
<title>AppRoutingModule</title>
<polygon fill="#8dd3c7" stroke="black" points="3030.27,-122 3027.27,-126 3006.27,-126 3003.27,-122 2901.73,-122 2901.73,-86 3030.27,-86 3030.27,-122"/>
<text text-anchor="middle" x="2966" y="-99.8" font-family="Times,serif" font-size="14.00">AppRoutingModule</text>
</g>
<!-- AppRoutingModule&#45;&gt;AppModule -->
<g id="edge16" class="edge">
<title>AppRoutingModule&#45;&gt;AppModule</title>
<path fill="none" stroke="black" d="M2966,-122.15C2966,-145.76 2966,-184 2966,-184 2966,-184 1611.7,-184 1611.7,-184"/>
<polygon fill="black" stroke="black" points="1611.7,-180.5 1601.7,-184 1611.7,-187.5 1611.7,-180.5"/>
</g>
<!-- ThemeModule -->
<g id="node18" class="node">
<title>ThemeModule</title>
<polygon fill="#8dd3c7" stroke="black" points="2883.42,-122 2880.42,-126 2859.42,-126 2856.42,-122 2784.58,-122 2784.58,-86 2883.42,-86 2883.42,-122"/>
<text text-anchor="middle" x="2834" y="-99.8" font-family="Times,serif" font-size="14.00">ThemeModule</text>
</g>
<!-- ThemeModule&#45;&gt;AppModule -->
<g id="edge17" class="edge">
<title>ThemeModule&#45;&gt;AppModule</title>
<path fill="none" stroke="black" d="M2834,-122.01C2834,-144.49 2834,-180 2834,-180 2834,-180 1611.66,-180 1611.66,-180"/>
<polygon fill="black" stroke="black" points="1611.66,-176.5 1601.66,-180 1611.66,-183.5 1611.66,-176.5"/>
</g>
<!-- CodeService -->
<g id="node20" class="node">
<title>CodeService</title>
<ellipse fill="#fdb462" stroke="black" cx="2701" cy="-104" rx="60.25" ry="18"/>
<text text-anchor="middle" x="2701" y="-99.8" font-family="Times,serif" font-size="14.00">CodeService</text>
</g>
<!-- CodeService&#45;&gt;AppModule -->
<g id="edge19" class="edge">
<title>CodeService&#45;&gt;AppModule</title>
<path fill="none" stroke="black" d="M2701,-122.04C2701,-143.66 2701,-177 2701,-177 2701,-177 1611.96,-177 1611.96,-177"/>
<polygon fill="black" stroke="black" points="1611.96,-173.5 1601.96,-177 1611.96,-180.5 1611.96,-173.5"/>
</g>
<!-- CodefetchService -->
<g id="node21" class="node">
<title>CodefetchService</title>
<ellipse fill="#fdb462" stroke="black" cx="2543" cy="-104" rx="79.85" ry="18"/>
<text text-anchor="middle" x="2543" y="-99.8" font-family="Times,serif" font-size="14.00">CodefetchService</text>
</g>
<!-- CodefetchService&#45;&gt;AppModule -->
<g id="edge20" class="edge">
<title>CodefetchService&#45;&gt;AppModule</title>
<path fill="none" stroke="black" d="M2543,-122.13C2543,-142.57 2543,-173 2543,-173 2543,-173 1611.92,-173 1611.92,-173"/>
<polygon fill="black" stroke="black" points="1611.92,-169.5 1601.92,-173 1611.92,-176.5 1611.92,-169.5"/>
</g>
<!-- TokenInterceptor -->
<g id="node22" class="node">
<title>TokenInterceptor</title>
<ellipse fill="#fdb462" stroke="black" cx="2367" cy="-104" rx="78.13" ry="18"/>
<text text-anchor="middle" x="2367" y="-99.8" font-family="Times,serif" font-size="14.00">TokenInterceptor</text>
</g>
<!-- TokenInterceptor&#45;&gt;AppModule -->
<g id="edge21" class="edge">
<title>TokenInterceptor&#45;&gt;AppModule</title>
<path fill="none" stroke="black" d="M2367,-122.11C2367,-141.34 2367,-169 2367,-169 2367,-169 1611.69,-169 1611.69,-169"/>
<polygon fill="black" stroke="black" points="1611.69,-165.5 1601.69,-169 1611.69,-172.5 1611.69,-165.5"/>
</g>
</g>
</svg>
